<?xml version="1.0" encoding="UTF-8"?>
<svg width="1000" height="947" viewBox="0 0 1000 947" version="1.1" xmlns="http://www.w3.org/2000/svg"><path fill="#e07005" fill-rule="nonzero" d="M732.5,103 Q756.1,100.9 771.5,107 Q794.2,115.3 809,131.5 Q822.4,146.1 829,167.5 Q833.9,181.6 832,202.5 Q825.6,239.6 801.5,259 Q787,272 765.5,278 L756.5,280 L730.5,280 L708.5,273 L689,297.5 Q722.9,331.1 743.5,378 Q759.8,384.7 770,397.5 Q784.1,413.9 791,437.5 L797,466.5 L798,497.5 L794,524.5 L788,545.5 Q779.4,566.9 764.5,582 L743,596.5 Q721.7,645.7 685.5,680 Q648.7,715.7 597.5,737 Q573.7,746.7 545.5,752 L511.5,756 L483.5,756 L482.5,755 L462.5,754 L434.5,749 Q407.5,742.5 384.5,732 Q336.5,709.5 302,673.5 Q269.7,640.3 249.5,595 Q233.7,588.8 224,576.5 Q194.7,542.8 196,478.5 L200,448.5 L208,423.5 Q217.3,402.3 233.5,388 Q240.8,381 251,378 Q273.7,324.5 314.5,288 Q352.4,252.9 405.5,233 Q428.8,224.3 456.5,220 L482.5,218 L483.5,217 L509.5,217 L510.5,218 L530.5,219 L557.5,224 L587.5,233 Q621.3,245.2 648.5,264 L668,238.5 Q653.6,219.4 654,185.5 Q659.8,144.8 685.5,124 Q703.4,107.9 732.5,103 Z M483.5,270 L444.5,276 L407.5,289 Q377.1,303.1 353.5,324 Q344.12,332.12 335.79,341.3 Q318.89,359.58 306.54,382.42 Q301.99,390.68 298,399.5 L286,435.5 L280,472.5 L280,503 L282,520 L291,556 L296,565 L297,572 L302,583 L312,601 Q324,620 340,637 Q360.83,658.57 387.74,674.06 Q396.78,679.37 406.5,684 Q437.3,698.2 477.5,703 L518,703 L526,702 Q553,698 576,689 Q589.53,683.39 601.86,676.58 Q609.83,672.21 617.27,667.3 Q633.29,656.8 647,644 Q675,617 693,581 L708,539 L712,517 L713,496 L714,495 L713.98,494.52 L714,494.5 L713,467.5 L711,451.5 L702,416.5 L697,407.5 L696,400.5 L689,385.5 Q676.4,362.6 660,343.5 Q634.88,315.13 600.29,296.25 Q591.44,291.31 582,287 Q577.3,284.98 572.39,283.17 Q558.29,277.72 542.14,274.3 Q539.1,273.62 536,273 L512,270 Z M409.58,631.2 Q391.97,620.67 378,606.5 Q362,590.5 350,570.5 L338,544.5 L330,511.5 L329.01,471.94 L334,443 L349,406 Q365,378 389,358 Q422.98,327.02 479.93,319.01 L521.5,320 Q541.8,323.2 558.5,330 Q568.47,334.1 577.57,339.06 Q605.3,354.51 625,378 Q634.34,388.15 641.7,400.44 Q646.68,408.84 650.78,418.12 Q655.5,428.9 659,441 L665,473 L665,503.5 Q653.8,576.3 607.5,614 Q602.02,618.89 596.03,623.26 Q578.52,635.64 557.48,644.1 Q552.12,646.18 546.5,648 L511.5,655 L483,655 L459,651 L429,641 Q418.77,636.57 409.58,631.2 Z M491,354 L490.94,354.03 L490.5,354 L483.5,357 Q474.4,362.9 471,374.5 L471,492 L477,504 L483.9,508.6 L488.5,512 L574.5,563 L588.5,568 Q598.72,568.22 604.77,564.28 Q607.11,562.89 609,561 Q616,555 617,543 L616.97,542.78 Q616.99,542.64 617,542.5 L616,534.5 L613,528.5 L604.7,521.8 L598,516 L526,474 L524.5,473 L523,471.5 L523,377.5 L522,371.5 L518,364.5 L511.98,359.52 L507,355 Z M742,155 L741.95,155.01 Q741.73,155 741.5,155 L728.5,158 L719.5,164 Q709.7,171.7 707,186.5 Q706.71,191.31 707.07,195.48 Q708.01,207.26 714,214 Q721.33,224.99 737.87,227.59 Q739.16,227.82 740.5,228 Q752.75,228.33 760.4,224.06 Q762.29,223.14 764,222 L775,210 L779,200 L780,192 Q779.99,191.85 779.98,191.69 L780,191.5 Q779.5,185 777.75,179.75 Q776,174.5 773,170.5 Q771.51,167.88 769.59,165.7 Q760.81,155 742,155 Z M277.04,488.92 L277,489 L280,521 L288,555 L293,563 Q296,581 305,594 L329,628 Q352.92,656.86 387.03,676.21 Q353.33,656.54 329,627.5 L305,593.5 Q296.4,580.6 293,562.5 L288,554.5 L280,520.5 Z M515.5,753 L516,753 L517,752 L537,751 Q568,746 594,736 Q648,715 686,677 L699,663 Q698.93,662.8 698.89,662.62 L685.5,677 Q647.7,714.7 593.5,736 Q567.7,746.2 536.5,751 L516.5,752 Z M487.91,652.99 L488,653 L520,652 L552,644 Q583,633 606,613 Q635,588 651,551 L660,522 L662,509 L662,508.5 L660,521.5 L651,550.5 Q634.9,588.4 605.5,613 Q582.8,632.8 551.5,644 L519.5,652 Z M624.65,665.12 Q635.94,657.18 646,648 Q677,619 697,578 L701,564 L708,549 L716,506 L716,505.5 L708,548.5 L701,563.5 L697,577.5 Q677.3,618.8 645.5,648 Q635.71,657.2 624.65,665.12 Z M268.49,626.69 Q279.74,645.55 294,662 Q321.41,693.85 358.69,715.83 Q321.45,693.56 294,661.5 Q279.91,645.43 268.49,626.69 Z M608.75,521.75 L604,517 L529,473 L526.56,469.94 L528.5,473 L603.5,517 Z M613,246 L584,234 L555,226 L516,220 L515.56,220.01 L554.5,226 L583.5,234 L612.5,246 L646.5,266 L647,266 Z M331.02,481.89 L331,482 L332,508 L340,543 L355,575 L370,595 Q374.8,600.37 380.04,605.34 Q374.78,600.16 370,594.5 L355,574.5 L340,542.5 L332,507.5 Z M199,499.5 L199,500 L202,524 L205,536 Q212,560 227,577 Q230.2,580.52 233.92,583.53 Q230.15,580.32 227,576.5 Q212.2,559.7 205,535.5 L202,523.5 Z M617.52,303.75 Q603.57,294.43 588,287 Q570,278 549,273 L522,268 L521.5,268 L548.5,273 Q569.7,278.3 587.5,287 Q603.41,294.48 617.52,303.75 Z M603.81,359.99 Q587.34,345.84 567,336 L536,325 L518,322 L517.5,322 L535.5,325 L566.5,336 Q587.13,346.02 603.81,359.99 Z M765.33,395.87 Q756.31,385.48 743,380 L727.55,352.95 L742.5,380 Q756.01,385.84 765.33,395.87 Z M730.65,617.43 Q736.67,606.61 742,595 L763,581 Q766.04,577.68 768.85,574.14 Q765.85,577.74 762.5,581 L742,594.5 Q736.7,606.39 730.65,617.43 Z M778.68,559.89 Q780.4,557 782,554 Q792,533 795,507 Q797.63,461.6 785.98,430.49 Q797.42,461.57 795,506.5 Q791.8,533.3 782,553.5 Q780.43,556.79 778.68,559.89 Z M687.16,298.69 L691,291 L707.91,271.1 L707.5,271 L691,290.5 L687,298.5 Z M704.76,185.82 Q702.44,205.44 712,215 Q714.85,218.7 718.58,221.59 Q714.82,218.51 712,214.5 Q703.02,205.52 704.76,185.82 Z M601.89,568.13 Q604.75,566.93 607,565 Q616,559 619,548 Q620.44,537.23 617.23,531.1 Q620.12,537.3 619,547.5 Q615.6,559.1 606.5,565 Q604.55,566.92 601.89,568.13 Z M753.5,278 L754,278 L771,274 Q790,267 804,254 Q807.04,250.68 809.85,247.14 Q806.85,250.74 803.5,254 Q790.1,267.1 770.5,274 Z M657.02,182.9 L657,183 L658,208 L665,229 L670,237 L670,236.5 L665,228.5 L658,207.5 Z M509.5,706 L510,706 L511,705 L528,704 L564,696 Q572.67,692.93 580.88,689.4 Q572.45,692.96 563.5,696 L527.5,704 L510.5,705 Z M658.18,176.44 Q663.79,150.86 678.49,134.37 Q663.53,150.6 658.18,176.44 Z M819.67,232.89 Q821.4,230 823,227 L828,211 L830,198 L830,197.5 L828,210.5 L823,226.5 Q821.43,229.79 819.67,232.89 Z M791.92,119.95 Q783.37,114.06 773,110 L755,106 L754.5,106 L772.5,110 Q783.15,114.04 791.92,119.95 Z M468,487.5 L468,488 L473,502 L479.27,507.23 L473,501.5 Z M762.9,225.65 Q765.68,224.06 768,222 Q770.77,219.51 773.08,216.56 Q770.58,219.57 767.5,222 Q765.44,224.06 762.9,225.65 Z M505.5,352 L518,360 L506,352 Z M767.28,160.85 Q763.13,157.28 758,155 Q756.56,154.46 755,154.05 Q756.31,154.47 757.5,155 Q762.94,157.37 767.28,160.85 Z M714.31,165.3 Q708.56,170.9 706.01,179.7 Q708.71,171.05 714.31,165.3 Z M509,268 L489,267 L488.5,267 L508.5,268 Z M824.56,161.83 Q821.84,154.04 817.87,147.49 Q821.76,154.11 824.56,161.83 Z M662,495 L663,493 L662.97,492.56 L662,494.5 Z M525.04,467.56 L526,456 L526,455.5 L525,467.5 Z M499,351 L498.67,351.06 L501.5,352 L502,352 Z M493,321 L492.93,321.07 L498.5,322 L499,322 Z M525.92,421.83 L525,425.5 L525,426 L526,422 Z M277,483.5 L277,484 L277.9,486.7 L278,486.5 Z M780.77,202.05 Q781.44,200.08 782,198 L781.98,197.6 Q781.45,199.9 780.77,202.05 Z M698.98,661.02 Q698.99,661.01 699,661 Q699.5,660.5 701,661 Q699.58,660.42 699.1,660.86 Q699.03,660.93 698.98,661.02 Z M742.91,230.99 L743,231 Q743.35,230.98 743.7,230.95 Q743.31,230.97 742.91,230.99 Z"/></svg>
